<svg width="60" height="48" viewBox="0 0 60 48" fill="none" xmlns="http://www.w3.org/2000/svg">
<g clip-path="url(#clip0_30_61)">
<path d="M3.63748 0.478118C2.66248 -0.290632 1.24685 -0.112507 0.478103 0.862493C-0.290647 1.83749 -0.112522 3.25312 0.862478 4.02187L56.3625 47.5219C57.3375 48.2906 58.7531 48.1125 59.5219 47.1375C60.2906 46.1625 60.1125 44.7469 59.1375 43.9781L49.275 36.2531C52.9875 32.4469 55.5 28.1812 56.7656 25.1531C57.075 24.4125 57.075 23.5875 56.7656 22.8469C55.3687 19.5 52.4344 14.625 48.0469 10.5562C43.6406 6.44999 37.575 2.99999 30 2.99999C23.6062 2.99999 18.2812 5.46562 14.1281 8.69999L3.63748 0.478118ZM20.9156 14.0156C23.3062 11.8312 26.5031 10.5 30 10.5C37.4531 10.5 43.5 16.5469 43.5 24C43.5 26.3344 42.9094 28.5281 41.8687 30.4406L38.25 27.6094C39.0375 25.8 39.2437 23.7281 38.7 21.675C37.6594 17.7844 34.2187 15.1687 30.3937 15.0094C29.85 14.9906 29.5312 15.5812 29.7 16.1062C29.8969 16.7062 30.0094 17.3437 30.0094 18.0094C30.0094 18.9656 29.7844 19.8656 29.3906 20.6625L20.925 14.025L20.9156 14.0156ZM34.9687 36.5531C33.4312 37.1625 31.7531 37.5 30 37.5C22.5469 37.5 16.5 31.4531 16.5 24C16.5 23.3531 16.5469 22.725 16.6312 22.1062L7.7906 15.1406C5.6531 17.925 4.12498 20.7 3.23435 22.8469C2.92498 23.5875 2.92498 24.4125 3.23435 25.1531C4.63123 28.5 7.5656 33.375 11.9531 37.4437C16.3594 41.55 22.425 45 30 45C34.4812 45 38.4281 43.7906 41.8312 41.9531L34.9687 36.5531Z" fill="#EEEEEE"/>
</g>
<defs>
<clipPath id="clip0_30_61">
<rect width="60" height="48" fill="white"/>
</clipPath>
</defs>
</svg>
